<mxfile host="app.diagrams.net" modified="2023-08-10T08:23:38.142Z" agent="Mozilla/5.0 (Windows NT 10.0; Win64; x64) AppleWebKit/537.36 (KHTML, like Gecko) Chrome/115.0.0.0 Safari/537.36" version="21.6.7" etag="t5WBaChVOX4f7jlaRYTW" type="github">
  <diagram name="Page-1" id="2FcFRfJJw-KxKcMNalWO">
    <mxGraphModel>
      <root>
        <mxCell id="0" />
        <mxCell id="1" parent="0" />
      </root>
    </mxGraphModel>
  </diagram>
</mxfile>
